<svg xmlns="http://www.w3.org/2000/svg" version="1.1" xmlns:xlink="http://www.w3.org/1999/xlink" xmlns:svgjs="http://svgjs.com/svgjs" x="0" y="0" viewBox="0 0 64 64" style="enable-background:new 0 0 512 512" xml:space="preserve"><g><path d="M32 64C16.5 64 4.4 59 4.4 52.5c0-5.4 8.3-9.8 20.7-11.1.5-.1 1 .3 1.1.9.1.5-.3 1-.9 1.1-11 1.2-18.9 5-18.9 9.2 0 4.6 10.3 9.6 25.7 9.6s25.7-4.9 25.7-9.6c0-4.2-8-8.1-19-9.2-.5-.1-.9-.5-.9-1.1.1-.5.5-.9 1.1-.9 12.4 1.3 20.7 5.8 20.7 11.1C59.6 59 47.5 64 32 64z" fill="currentColor" data-original="#000000"/><path d="M32 57.9c-5.9 0-12.2-1.9-12.2-5.4 0-2.6 3.6-4.6 9.1-5.2.5-.1 1 .3 1.1.9.1.5-.3 1-.9 1.1-4.6.5-7.3 2.1-7.3 3.3 0 1.4 4 3.4 10.2 3.4 6.3 0 10.2-2 10.2-3.4 0-1.2-2.8-2.8-7.4-3.3-.5-.1-.9-.5-.9-1.1.1-.5.5-.9 1.1-.9 5.5.6 9.1 2.7 9.1 5.2.1 3.5-6.2 5.4-12.1 5.4z" fill="currentColor" data-original="#000000"/><path d="M32 53.5c-.3 0-.6-.1-.8-.4-.7-1-17.8-24.6-17.8-34.5C13.4 8.3 21.7 0 32 0s18.6 8.3 18.6 18.6c0 9.9-17.1 33.5-17.8 34.5-.2.2-.5.4-.8.4zm0-51.6c-9.2 0-16.7 7.5-16.7 16.7 0 8.2 13.3 27.4 16.7 32.2 3.4-4.8 16.7-24.1 16.7-32.2 0-9.2-7.5-16.7-16.7-16.7z" fill="currentColor" data-original="#000000"/><path d="M32 28.7c-5.6 0-10.1-4.5-10.1-10.1S26.4 8.5 32 8.5 42.1 13 42.1 18.6 37.6 28.7 32 28.7zm0-18.3c-4.5 0-8.1 3.7-8.1 8.1s3.7 8.1 8.1 8.1c4.5 0 8.1-3.7 8.1-8.1s-3.6-8.1-8.1-8.1z" fill="currentColor" data-original="#000000"/></g></svg>