<svg xmlns="http://www.w3.org/2000/svg" fill="#a91a2d" version="1.1" xmlns:xlink="http://www.w3.org/1999/xlink" xmlns:svgjs="http://svgjs.com/svgjs" x="0" y="0" viewBox="0 0 24 24" style="enable-background:new 0 0 512 512" xml:space="preserve" class=""><g><path fill="#a91a2d" fill-rule="evenodd" d="M8.996 1c1.59 0 3 .88 3 2.5.108 1.109-1.033 3.324-1 4.502 0 .323.038.665.113 1.027.171-.027.357-.034.532-.025C12.72 5.712 14.33 4 16.496 4c2.68 0 5.5 2.633 5.5 5 0 1.59-.88 3-2.5 3-1.194.09-3.304-1.033-4.502-1a5.07 5.07 0 0 0-1.027.113c.027.17.033.357.025.533 3.291 1.077 5.004 2.687 5.004 4.854 0 2.679-2.633 5.5-5 5.5-1.59 0-3-.881-3-2.5-.078-1.257 1.033-3.287 1-4.502a5.07 5.07 0 0 0-.113-1.027 2.632 2.632 0 0 1-.533.025C10.273 17.288 8.663 19 6.496 19c-2.679 0-5.5-2.633-5.5-5 0-1.59.881-3 2.5-3 1.257-.078 3.287 1.033 4.502 1a5.07 5.07 0 0 0 1.027-.113A2.629 2.629 0 0 1 9 11.354C5.71 10.277 3.996 8.667 3.996 6.5c0-2.68 2.633-5.5 5-5.5m4.738 11.613c-.203.41-.52.759-.906 1.003.112.482.168.942.168 1.382.108 1.11-1.033 3.324-1 4.502 0 .943.892 1.5 2 1.5 1.8 0 4-2.358 4-4.5 0-1.63-1.377-2.934-4.262-3.887M3.496 12c-.943 0-1.5.892-1.5 2 0 1.799 2.358 4 4.5 4 1.63 0 2.934-1.377 3.887-4.262a2.497 2.497 0 0 1-1.004-.907A6.035 6.035 0 0 1 8 13c-1.11.108-3.325-1.033-4.503-1m8-2a1.5 1.5 0 1 0 .001 3 1.5 1.5 0 0 0 0-3m5-5c-1.63 0-2.935 1.377-3.888 4.26.412.206.76.522 1.004.909.48-.113.941-.17 1.381-.17 1.11-.107 3.324 1.034 4.502 1 .942 0 1.5-.891 1.5-2 0-1.798-2.358-4-4.5-4m-7.5-3c-1.799 0-4 2.359-4 4.5 0 1.63 1.377 2.935 4.261 3.888.205-.413.521-.76.908-1.004a6.035 6.035 0 0 1-.169-1.381c-.108-1.11 1.033-3.324 1-4.502 0-.943-.892-1.5-2-1.5" data-original="#000000"/></g></svg>