<svg xmlns="http://www.w3.org/2000/svg" fill="#bead8e" version="1.1" xmlns:xlink="http://www.w3.org/1999/xlink" xmlns:svgjs="http://svgjs.com/svgjs" x="0" y="0" viewBox="0 0 512 512" style="enable-background:new 0 0 512 512" xml:space="preserve"><g><path d="M213.045 83.786a7.499 7.499 0 0 0-7.5 7.5v10.602c0 4.143 3.357 7.5 7.5 7.5s7.5-3.357 7.5-7.5V91.286a7.5 7.5 0 0 0-7.5-7.5zM300.702 141.304l7.497-7.496a7.5 7.5 0 0 0-10.605-10.607l-7.497 7.496a7.5 7.5 0 0 0 10.605 10.607zM340.114 225.854c4.143 0 7.5-3.357 7.5-7.5s-3.357-7.5-7.5-7.5h-10.603c-4.143 0-7.5 3.357-7.5 7.5s3.357 7.5 7.5 7.5zM208.629 337.906v10.603c0 4.143 3.357 7.5 7.5 7.5s7.5-3.357 7.5-7.5v-10.603c0-4.143-3.357-7.5-7.5-7.5s-7.5 3.358-7.5 7.5zM117.89 313.51a7.501 7.501 0 0 0 10.607 0l7.497-7.497a7.5 7.5 0 0 0-10.607-10.607l-7.497 7.497a7.5 7.5 0 0 0 0 10.607zM96.578 225.854c4.143 0 7.5-3.357 7.5-7.5s-3.357-7.5-7.5-7.5H85.976c-4.143 0-7.5 3.357-7.5 7.5s3.357 7.5 7.5 7.5zM125.388 141.304a7.5 7.5 0 0 0 10.606-.001 7.498 7.498 0 0 0-.001-10.606l-7.497-7.496a7.5 7.5 0 0 0-10.606.001 7.498 7.498 0 0 0 .001 10.606zM205.545 213.939H176.6c-4.143 0-7.5 3.357-7.5 7.5s3.357 7.5 7.5 7.5h36.445c4.143 0 7.5-3.357 7.5-7.5v-70.977c0-4.143-3.357-7.5-7.5-7.5s-7.5 3.357-7.5 7.5z" fill="#bead8e" data-original="#000000"/><path d="M424.728 242.365a215.295 215.295 0 0 0 1.361-24.009c0-54.785-20.758-106.842-58.449-146.582a7.5 7.5 0 0 0-10.603-.28 7.5 7.5 0 0 0-.28 10.603c35.036 36.941 54.332 85.332 54.332 136.26 0 6.388-.322 12.835-.945 19.257a136.45 136.45 0 0 0-32.503-4.5c.439-4.922.686-9.858.686-14.758 0-91.137-74.145-165.282-165.281-165.282S47.763 127.219 47.763 218.355c0 18.364 3 36.42 8.917 53.664a7.502 7.502 0 0 0 7.093 5.068c.808 0 1.629-.131 2.435-.408a7.498 7.498 0 0 0 4.66-9.527c-5.378-15.675-8.104-32.093-8.104-48.797 0-82.866 67.416-150.282 150.282-150.282 82.865 0 150.281 67.416 150.281 150.282 0 5.083-.272 10.214-.791 15.318-68.406 6.309-122.388 63.185-124.098 132.806a151.64 151.64 0 0 1-25.392 2.158c-53.52 0-103.418-28.824-130.223-75.226a7.5 7.5 0 0 0-12.988 7.504c28.624 49.55 82.145 82.722 143.211 82.722 8.652 0 17.316-.68 25.857-2.022a135.803 135.803 0 0 0 6.691 32.099 199.735 199.735 0 0 1-32.547 2.687C103.843 416.399 15 327.558 15 218.355S103.843 20.311 213.045 20.311c44.857 0 87.16 14.624 122.335 42.291a7.498 7.498 0 0 0 10.531-1.258 7.498 7.498 0 0 0-1.258-10.531C306.809 21.045 261.299 5.311 213.045 5.311 95.571 5.311 0 100.882 0 218.355s95.571 213.044 213.045 213.044c12.841 0 25.696-1.164 38.3-3.453 21.879 46.484 69.166 78.743 123.852 78.743 28.344 0 55.542-8.599 78.653-24.866a7.497 7.497 0 0 0 1.816-10.449 7.497 7.497 0 0 0-10.449-1.816c-20.571 14.479-44.783 22.132-70.021 22.132-66.339 0-121.804-53.76-121.804-121.804 0-67.163 54.641-121.804 121.804-121.804 67.162 0 121.803 54.641 121.803 121.804a121.625 121.625 0 0 1-30.68 80.812 7.5 7.5 0 1 0 11.219 9.957A136.604 136.604 0 0 0 512 369.886c0-57.974-36.25-107.635-87.272-127.521z" fill="#bead8e" data-original="#000000"/><path d="M439.81 305.272c-8.773-8.771-23.047-8.772-31.82.001l-32.792 32.793-32.793-32.793c-8.79-8.794-23.025-8.796-31.819-.001-8.794 8.792-8.795 23.027-.001 31.82l32.794 32.793-32.793 32.793c-8.794 8.792-8.795 23.027-.001 31.82 8.795 8.793 23.026 8.793 31.82 0l32.793-32.794 32.792 32.793c8.791 8.795 23.027 8.794 31.819.001 8.793-8.791 8.796-23.027.001-31.819l-32.793-32.794 32.792-32.793c8.794-8.791 8.794-23.026.001-31.82zm-10.608 21.214-38.096 38.097a7.5 7.5 0 0 0 0 10.606l38.097 38.097a7.494 7.494 0 0 1-.001 10.605 7.494 7.494 0 0 1-10.605.001l-38.096-38.097a7.5 7.5 0 0 0-10.608-.001l-38.097 38.097a7.494 7.494 0 0 1-10.606 0 7.494 7.494 0 0 1 .001-10.605l38.097-38.097a7.5 7.5 0 0 0 0-10.607l-38.098-38.097a7.494 7.494 0 0 1 .001-10.605 7.493 7.493 0 0 1 10.605 0l38.097 38.097a7.502 7.502 0 0 0 10.608 0l38.096-38.097c2.924-2.926 7.681-2.924 10.606 0a7.496 7.496 0 0 1-.001 10.606z" fill="#bead8e" data-original="#000000"/></g></svg>