<svg xmlns="http://www.w3.org/2000/svg" fill="#a91a2d" version="1.1" xmlns:xlink="http://www.w3.org/1999/xlink" xmlns:svgjs="http://svgjs.com/svgjs" x="0" y="0" viewBox="0 0 512 512" style="enable-background:new 0 0 512 512" xml:space="preserve"><g><path d="M240.641 81.884a7.782 7.782 0 1 0 0 15.564h35.049c7.525 0 13.647-6.122 13.647-13.646V56.834c0-7.525-6.122-13.647-13.647-13.647H114.732c-7.525 0-13.647 6.122-13.647 13.647v26.969c0 7.524 6.122 13.646 13.647 13.646h89.331a7.782 7.782 0 1 0 0-15.564H116.65V58.752h157.122v23.131h-33.131zM66.302 137.403a7.781 7.781 0 0 0 7.782 7.782h243.902a7.781 7.781 0 0 0 7.782-7.782 7.781 7.781 0 0 0-7.782-7.782H74.084a7.78 7.78 0 0 0-7.782 7.782zM74.084 194.151h243.902a7.781 7.781 0 0 0 7.782-7.782 7.781 7.781 0 0 0-7.782-7.782H74.084a7.782 7.782 0 1 0 0 15.564zM269.877 235.336a7.781 7.781 0 0 0-7.782-7.782H74.084a7.782 7.782 0 1 0 0 15.564h188.01a7.783 7.783 0 0 0 7.783-7.782zM171.291 292.084a7.782 7.782 0 1 0 0-15.564H74.084a7.782 7.782 0 1 0 0 15.564zM64.701 443.408c4.136 1.185 8.439-1.218 9.617-5.352.05-.173 5.155-17.292 25.029-17.292 9.81 0 14.466 3.854 20.911 9.189 7.405 6.13 16.622 13.758 34.43 13.758 22.205 0 34.141-23.477 34.639-24.476 1.91-3.837.349-8.484-3.481-10.407-3.83-1.924-8.502-.375-10.441 3.447-.081.159-8.193 15.871-20.717 15.871-12.202 0-17.632-4.494-24.506-10.184-7.228-5.983-15.419-12.763-30.836-12.763-25.196 0-37.181 18.703-39.998 28.592a7.783 7.783 0 0 0 5.353 9.617z" fill="#a91a2d" data-original="#000000"/><path d="M507.906 79.908a7.785 7.785 0 0 0-4.177-4.266l-18.083-7.694c1.517-3.834-.39-8.385-4.144-10.007l-3.605-1.557 5.85-13.548c6.608-15.333-.701-33.713-16.018-40.33-15.306-6.612-33.703.699-40.317 16l-6.028 13.955c-6.896-1.202-13.871 2.587-16.639 8.997l-16.211 37.539v-39.84C388.534 17.565 370.968 0 349.377 0H42.682C21.097 0 3.536 17.561 3.536 39.146v433.708C3.536 494.439 21.097 512 42.682 512h306.706c21.585 0 39.145-17.561 39.145-39.146V363.896a7.782 7.782 0 1 0-15.564 0v108.958c0 13.003-10.578 23.581-23.58 23.581H42.682c-13.003 0-23.581-10.578-23.581-23.581V39.146c0-13.003 10.579-23.581 23.581-23.581h306.695c13.008 0 23.592 10.583 23.592 23.592v75.882L253.683 391.311a7.876 7.876 0 0 0-.644 3.09l.091 65.556c.012 14.628 18.101 22.505 28.808 12.438l47.768-44.887a7.74 7.74 0 0 0 1.616-2.18c.042-.083.084-.165.123-.25.025-.053.054-.104.077-.158L479.486 82.242l10.96 4.663-57.884 134.602a7.782 7.782 0 0 0 14.298 6.149l60.97-141.778a7.784 7.784 0 0 0 .076-5.97zM456.46 15.592c10.322.53 17.05 11.676 12.995 21.077l-5.847 13.542-27.76-11.984L441.7 24.68c2.506-5.798 8.426-9.438 14.76-9.088zm-37.532 32.284 49.26 21.269-62.59 144.955-49.268-21.274zm-98.61 363.731-49.259-21.272 79.102-183.218 49.268 21.274zm-49.041 49.446c-.959.9-2.583.21-2.583-1.111l-.073-53.705 41.788 18.044z" fill="#a91a2d" data-original="#000000"/></g></svg>