<svg xmlns="http://www.w3.org/2000/svg"  fill="#bead8e" version="1.1" xmlns:xlink="http://www.w3.org/1999/xlink" xmlns:svgjs="http://svgjs.com/svgjs" x="0" y="0" viewBox="0 0 511 511.999" style="enable-background:new 0 0 512 512" xml:space="preserve"><g><path d="M21.14 279.676c-7.53-7.531-7.53-19.785 0-27.313L204.927 68.578a7.497 7.497 0 0 0 0-10.605 7.494 7.494 0 0 0-10.606 0L10.531 241.758c-13.375 13.375-13.375 35.144 0 48.523l46.293 46.29a7.48 7.48 0 0 0 5.301 2.195c1.922 0 3.84-.73 5.305-2.196a7.497 7.497 0 0 0 0-10.605zm0 0" fill="#bead8e" data-original="#000000"/><path d="M168.578 149.363 55.086 262.855a7.502 7.502 0 0 0 5.305 12.805 7.47 7.47 0 0 0 5.3-2.195l113.493-113.492a7.502 7.502 0 0 0 0-10.61c-2.926-2.926-7.676-2.926-10.606 0zM237.21 137.371c7.774 0 15.548-2.957 21.466-8.875l22.703-22.703c11.836-11.836 11.836-31.094 0-42.93-11.836-11.836-31.094-11.836-42.93 0l-22.703 22.703c-5.734 5.735-8.89 13.356-8.89 21.465 0 8.106 3.156 15.73 8.89 21.465 5.918 5.918 13.691 8.875 21.465 8.875zm-10.858-41.2 22.703-22.702c5.988-5.989 15.73-5.989 21.715 0 5.988 5.988 5.988 15.73 0 21.715l-22.704 22.703c-5.984 5.988-15.726 5.988-21.714 0-2.899-2.899-4.497-6.754-4.497-10.856s1.598-7.96 4.497-10.86zm0 0" fill="#bead8e" data-original="#000000"/><path d="M443.684 250.55h-72.196l55.625-55.624c13.38-13.38 13.38-35.149 0-48.528L290.762 10.051C284.282 3.57 275.664 0 266.5 0s-17.781 3.57-24.266 10.05l-26.718 26.72a7.504 7.504 0 0 0 0 10.605 7.497 7.497 0 0 0 10.605 0l26.723-26.719A19.175 19.175 0 0 1 266.5 15a19.188 19.188 0 0 1 13.656 5.656l136.348 136.348c7.531 7.531 7.531 19.781 0 27.312l-66.23 66.23H160.737l54.516-54.515a7.497 7.497 0 0 0 0-10.605 7.497 7.497 0 0 0-10.606 0l-65.12 65.125h-23.52c-18.922 0-34.313 15.39-34.313 34.308v192.829c0 18.917 15.39 34.312 34.313 34.312h327.676c18.921 0 34.312-15.395 34.312-34.313V449.97c0-4.145-3.355-7.5-7.5-7.5a7.5 7.5 0 0 0-7.5 7.5v27.719c0 10.648-8.66 19.312-19.312 19.312H116.008c-10.649 0-19.313-8.664-19.313-19.313V372.45h366.301v47.52a7.5 7.5 0 0 0 7.5 7.5 7.5 7.5 0 0 0 7.5-7.5V284.863c0-18.922-15.39-34.312-34.312-34.312zm-327.676 15h327.676c10.648 0 19.312 8.665 19.312 19.313v26.266h-366.3v-26.266c0-10.648 8.663-19.312 19.312-19.312zm-19.313 91.9v-31.321h366.301v31.32zm0 0" fill="#bead8e" data-original="#000000"/><path d="M380.781 427.469c-6.34 0-11.5 5.16-11.5 11.5v28.57c0 6.344 5.16 11.5 11.5 11.5h45.446c6.34 0 11.5-5.156 11.5-11.5v-28.57c0-6.34-5.16-11.5-11.5-11.5zm41.946 36.57H384.28v-21.57h38.446zM243.762 427.469c-6.34 0-11.5 5.16-11.5 11.5v28.57c0 6.344 5.16 11.5 11.5 11.5h96.12c6.34 0 11.5-5.156 11.5-11.5v-28.57c0-6.34-5.16-11.5-11.5-11.5zm92.62 36.57h-89.12v-21.57h89.12zM152.691 464.04a7.5 7.5 0 1 0 0 15h47.891a7.5 7.5 0 1 0 0-15zm0 0" fill="#bead8e" data-original="#000000"/></g></svg>