<svg xmlns="http://www.w3.org/2000/svg" version="1.1" xmlns:xlink="http://www.w3.org/1999/xlink" xmlns:svgjs="http://svgjs.com/svgjs" x="0" y="0" viewBox="0 0 512 512" style="enable-background:new 0 0 512 512" xml:space="preserve"><g><path d="M425.19 178.895h58.127c10.854 0 19.683-8.83 19.683-19.683v-24.705c0-10.854-8.829-19.683-19.683-19.683h-33.573L259.91 9.874a7 7 0 0 0-6.773 0L63.303 114.825h-34.62C17.829 114.825 9 123.655 9 134.508v24.705c0 10.853 8.829 19.683 19.683 19.683h60.768c1.75 31.852 2.648 65.329 2.648 99.661 0 38.035-1.082 74.875-3.216 109.621h-9.758c-11.929 0-21.634 9.705-21.634 21.634v28.778H30.635C18.705 438.589 9 448.294 9 460.223v21.143C9 493.295 18.705 503 30.635 503h450.731c11.929 0 21.634-9.705 21.634-21.634v-21.143c0-11.929-9.705-21.634-21.634-21.634H454.51v-28.778c0-11.929-9.705-21.634-21.634-21.634h-7.119c-2.134-34.745-3.216-71.585-3.216-109.621 0-34.332.898-67.809 2.649-99.661zM489 134.508v24.705a5.69 5.69 0 0 1-5.683 5.683H361.551c.085-1.734.13-3.479.13-5.234 0-10.723-1.61-21.077-4.594-30.836h126.229a5.688 5.688 0 0 1 5.684 5.682zM368.082 278.557c0 38.031-1.096 74.854-3.231 109.621h-31.089c-2.134-34.75-3.215-71.59-3.215-109.621 0-14.928.178-29.905.517-44.582 14.625-14.771 24.933-33.819 28.858-55.079h5.51c1.752 31.846 2.65 65.323 2.65 99.661zm-218.309 109.62c-2.134-34.745-3.216-71.585-3.216-109.621 0-34.332.898-67.809 2.649-99.661h2.872c4.163 22.544 15.503 42.602 31.557 57.708.299 13.832.458 27.923.458 41.953 0 38.03-1.081 74.871-3.215 109.621zm197.909-228.516c0 50.553-41.128 91.681-91.681 91.681-50.554 0-91.682-41.128-91.682-91.681s41.128-91.681 91.682-91.681c50.553 0 91.681 41.128 91.681 91.681zm-149.835 88.196a105.313 105.313 0 0 0 26.788 12.734c-.054 5.956-.082 11.977-.082 17.965 0 38.003 1.073 74.838 3.188 109.621h-32.837c2.115-34.783 3.188-71.618 3.188-109.621a1958.43 1958.43 0 0 0-.245-30.699zm43.921 140.32c-2.134-34.75-3.215-71.59-3.215-109.621 0-4.882.021-9.781.057-14.653 5.66.941 11.468 1.439 17.392 1.439 6.846 0 13.539-.662 20.025-1.912.039 5.027.061 10.084.061 15.125 0 38.03-1.081 74.871-3.215 109.621h-31.105zm48.228-128.445a105.449 105.449 0 0 0 26.827-13.695 1962.416 1962.416 0 0 0-.276 32.519c0 38.003 1.073 74.838 3.188 109.621h-32.837c2.115-34.783 3.188-71.618 3.188-109.621.001-6.278-.03-12.587-.09-18.824zM256.523 23.998l164.286 90.827h-69.125c-16.898-35.917-53.432-60.845-95.683-60.845-42.252 0-78.786 24.927-95.684 60.845h-68.08zM23 159.213v-24.705a5.689 5.689 0 0 1 5.683-5.683h126.23a105.335 105.335 0 0 0-4.594 30.836c0 1.755.045 3.5.13 5.234H28.683A5.689 5.689 0 0 1 23 159.213zm80.472 19.682h31.714c-1.737 31.877-2.628 65.35-2.628 99.661 0 38.007 1.073 74.843 3.189 109.621h-32.838c2.117-34.778 3.189-71.614 3.189-109.621.001-34.311-.89-67.784-2.626-99.661zM489 460.223v21.143c0 4.209-3.425 7.634-7.634 7.634H30.635c-4.21 0-7.635-3.425-7.635-7.634v-21.143c0-4.209 3.425-7.634 7.635-7.634h450.731c4.209 0 7.634 3.424 7.634 7.634zm-48.49-50.412v28.778H71.491v-28.778c0-4.209 3.425-7.634 7.634-7.634h353.751c4.209 0 7.634 3.424 7.634 7.634zm-61.617-21.634c2.116-34.791 3.189-71.627 3.189-109.621 0-34.317-.891-67.789-2.628-99.661h31.714c-1.736 31.877-2.627 65.35-2.627 99.661 0 38.007 1.073 74.843 3.189 109.621zm-69.661-279.07a7 7 0 0 0-6.445-1.345L256 121.414l-46.786-13.652a7 7 0 0 0-8.923 7.446l8.534 81.826a6.998 6.998 0 0 0 5.509 6.121l40.213 8.535a6.976 6.976 0 0 0 2.906 0l40.213-8.535a6.999 6.999 0 0 0 5.509-6.121l8.535-81.826a6.998 6.998 0 0 0-2.478-6.101zm-93.936 15.013L249 133.955v62.246l-26.779-5.683zm74.483 66.397L263 196.201v-62.246l33.705-9.835z" fill="#a91a2d" data-original="#000000"/></g></svg>