<svg xmlns="http://www.w3.org/2000/svg" version="1.1" xmlns:xlink="http://www.w3.org/1999/xlink" xmlns:svgjs="http://svgjs.com/svgjs" x="0" y="0" viewBox="0 0 512 512" style="enable-background:new 0 0 512 512" xml:space="preserve"><g><path d="M458.36 414.59H401.7a10 10 0 0 1 0-20h56.66a18.93 18.93 0 0 0 18.908-18.908V202.23a18.93 18.93 0 0 0-18.908-18.908H53.64a18.93 18.93 0 0 0-18.909 18.908v173.452A18.93 18.93 0 0 0 53.64 394.59h56.66a10 10 0 1 1 0 20H53.64a38.953 38.953 0 0 1-38.909-38.908V202.23a38.953 38.953 0 0 1 38.909-38.908h404.72a38.952 38.952 0 0 1 38.909 38.908v173.452a38.952 38.952 0 0 1-38.909 38.908Z" fill="#000" data-original="#000000"/><path d="M110.3 183.322a10 10 0 0 1-10-10V88.909A38.953 38.953 0 0 1 139.21 50H338.1a10 10 0 0 1 0 20H139.21a18.93 18.93 0 0 0-18.909 18.909v84.413a10 10 0 0 1-10 10ZM401.7 183.322a10 10 0 0 1-10-10v-49.723a10 10 0 0 1 20 0v49.723a10 10 0 0 1-10 10ZM372.791 462H139.21a38.952 38.952 0 0 1-38.909-38.908V312.083a10 10 0 0 1 20 0v111.009A18.93 18.93 0 0 0 139.21 442h233.581a18.93 18.93 0 0 0 18.908-18.908V312.083a10 10 0 0 1 20 0v111.009A38.952 38.952 0 0 1 372.791 462Z" fill="#000" data-original="#000000"/><path d="M401.7 133.599h-40.472a33.164 33.164 0 0 1-33.127-33.127V60a10 10 0 0 1 20 0v40.472a13.142 13.142 0 0 0 13.127 13.127h40.471a10 10 0 0 1 0 20Z" fill="#000" data-original="#000000"/><path d="M401.7 133.599a9.969 9.969 0 0 1-7.072-2.93l-63.599-63.598a10 10 0 0 1 14.143-14.142l63.598 63.598a10 10 0 0 1-7.07 17.072ZM428.295 322.083H83.705a10 10 0 0 1 0-20h344.59a10 10 0 0 1 0 20ZM352.176 370.07H159.824a10 10 0 0 1 0-20h192.352a10 10 0 0 1 0 20ZM352.176 414.012H159.824a10 10 0 0 1 0-20h192.352a10 10 0 0 1 0 20ZM422.514 266.578a28.502 28.502 0 1 1 28.5-28.501 28.534 28.534 0 0 1-28.5 28.501Zm0-37.003a8.502 8.502 0 1 0 8.5 8.502 8.511 8.511 0 0 0-8.5-8.502Z" fill="#000" data-original="#000000"/></g></svg>