<svg xmlns="http://www.w3.org/2000/svg" version="1.1" xmlns:xlink="http://www.w3.org/1999/xlink" xmlns:svgjs="http://svgjs.com/svgjs" x="0" y="0" viewBox="0 0 64 64" style="enable-background:new 0 0 512 512" xml:space="preserve"><g><path d="M62 33a1 1 0 0 0 1-1v-4a1 1 0 0 0-1-1H48.949A16.994 16.994 0 0 0 33 11.051V9.692l7.351-2.755a1 1 0 0 0 .1-1.832l-8-4A1 1 0 0 0 31 2v9.051A16.994 16.994 0 0 0 15.051 27H2a1 1 0 0 0-1 1v4a1 1 0 0 0 1 1h1v24H2a1 1 0 0 0-1 1v4a1 1 0 0 0 1 1h60a1 1 0 0 0 1-1v-4a1 1 0 0 0-1-1h-1V33ZM33 3.618l4.5 2.251L33 7.556ZM61 31h-9a1 1 0 0 0-.654-.938L48.464 29H61ZM42 57v-2h6v2Zm-6 0h-8v-4a4 4 0 0 1 8 0Zm-4-10a6.006 6.006 0 0 0-6 6v4h-2v-3a1 1 0 0 0-1-1h-1V41h1a1 1 0 0 0 1-1v-3h16v3a1 1 0 0 0 1 1h1v12h-1a1 1 0 0 0-1 1v3h-2v-4a6.006 6.006 0 0 0-6-6ZM22 37v2h-6v-2Zm-2 4v12h-2V41Zm2 14v2h-6v-2Zm22-2V41h2v12Zm-2-14v-2h6v2Zm-28-4v-3.3l18-6.631L50 31.7V35Zm18-22a15.006 15.006 0 0 1 14.949 14h-3.913l-10.69-3.938a.993.993 0 0 0-.692 0L20.964 27h-3.913A15.006 15.006 0 0 1 32 13ZM3 29h12.536l-2.882 1.062A1 1 0 0 0 12 31H3Zm2 4h7v3a1 1 0 0 0 1 1h1v3a1 1 0 0 0 1 1h1v12h-1a1 1 0 0 0-1 1v3H5Zm56 28H3v-2h58Zm-2-4h-9v-3a1 1 0 0 0-1-1h-1V41h1a1 1 0 0 0 1-1v-3h1a1 1 0 0 0 1-1v-3h7Z" fill="#a91a2d" data-original="#000000"/><path d="M38 40a1 1 0 0 0-1-1H27a1 1 0 0 0-1 1v4a1 1 0 0 0 1 1h10a1 1 0 0 0 1-1Zm-2 3h-8v-2h8ZM12 38H8a1 1 0 0 0-1 1v12a1 1 0 0 0 1 1h4a1 1 0 0 0 1-1V39a1 1 0 0 0-1-1Zm-1 12H9V40h2ZM52 38a1 1 0 0 0-1 1v12a1 1 0 0 0 1 1h4a1 1 0 0 0 1-1V39a1 1 0 0 0-1-1Zm3 12h-2V40h2ZM32 27a3 3 0 1 0 3 3 3 3 0 0 0-3-3Zm0 4a1 1 0 1 1 1-1 1 1 0 0 1-1 1Z" fill="#a91a2d" data-original="#000000"/></g></svg>