<svg xmlns="http://www.w3.org/2000/svg" version="1.1" xmlns:xlink="http://www.w3.org/1999/xlink" xmlns:svgjs="http://svgjs.com/svgjs" x="0" y="0" viewBox="0 0 64 64" style="enable-background:new 0 0 512 512" xml:space="preserve"><g><path d="M64 21.3a.65.65 0 0 0 0-.2.64.64 0 0 0-.06-.18l-.1-.15-.14-.15a.34.34 0 0 0-.06-.06L46.5 8.24V1a1 1 0 0 0-1-1h-27a1 1 0 0 0-1 1v7.24L.42 20.56a.34.34 0 0 0-.06.06l-.14.15a1.3 1.3 0 0 0-.1.15.64.64 0 0 0-.06.18.65.65 0 0 0 0 .2.19.19 0 0 0 0 .08V63a1 1 0 0 0 1 1H63a1 1 0 0 0 1-1V21.38a.19.19 0 0 0 0-.08Zm-4.07-.92h-8.8a1 1 0 0 0-.46.12H46.5v-9.8ZM46.5 22.5h3.63V62H46.5Zm-29-2h-4.17a1 1 0 0 0-.45-.12H4.1l13.4-9.68ZM2 22.38h9.88V62H2Zm11.88.12h3.62V62h-3.62ZM31 50.67 31.08 62h-6.25V50.67ZM33.08 62 33 50.67h6.16V62Zm8.09 0V49.67a1 1 0 0 0-1-1H23.83a1 1 0 0 0-1 1V62H19.5V2h25v60ZM62 62h-9.87V22.38H62Z" fill="#a91a2d" data-original="#000000"/><path d="M42 11.17h-5.5V5.7a1 1 0 0 0-1-1h-7a1 1 0 0 0-1 1v5.47H22a1 1 0 0 0-1 1v7a1 1 0 0 0 1 1h5.5v5.46a1 1 0 0 0 1 1h7a1 1 0 0 0 1-1v-5.46H42a1 1 0 0 0 1-1v-7a1 1 0 0 0-1-1Zm-1 7h-5.5a1 1 0 0 0-1 1v5.46h-5v-5.46a1 1 0 0 0-1-1H23v-5h5.5a1 1 0 0 0 1-1V6.7h5v5.47a1 1 0 0 0 1 1H41ZM41.17 31H22.83a1 1 0 0 0 0 2h18.34a1 1 0 0 0 0-2ZM41.17 35H22.83a1 1 0 0 0 0 2h18.34a1 1 0 0 0 0-2ZM41.17 39H22.83a1 1 0 0 0 0 2h18.34a1 1 0 0 0 0-2ZM41.17 43H22.83a1 1 0 0 0 0 2h18.34a1 1 0 0 0 0-2ZM9.84 31H4a1 1 0 1 0 0 2h5.8a1 1 0 1 0 0-2ZM9.84 35H4a1 1 0 1 0 0 2h5.8a1 1 0 1 0 0-2ZM9.84 39H4a1 1 0 1 0 0 2h5.8a1 1 0 1 0 0-2ZM9.84 43H4a1 1 0 1 0 0 2h5.8a1 1 0 1 0 0-2ZM9.84 47H4a1 1 0 1 0 0 2h5.8a1 1 0 1 0 0-2ZM9.84 51H4a1 1 0 1 0 0 2h5.8a1 1 0 1 0 0-2ZM9.84 55H4a1 1 0 1 0 0 2h5.8a1 1 0 1 0 0-2ZM54.16 33H60a1 1 0 1 0 0-2h-5.8a1 1 0 0 0 0 2ZM54.16 37H60a1 1 0 1 0 0-2h-5.8a1 1 0 0 0 0 2ZM54.16 41H60a1 1 0 1 0 0-2h-5.8a1 1 0 0 0 0 2ZM54.16 45H60a1 1 0 1 0 0-2h-5.8a1 1 0 0 0 0 2ZM54.16 49H60a1 1 0 1 0 0-2h-5.8a1 1 0 0 0 0 2ZM54.16 53H60a1 1 0 1 0 0-2h-5.8a1 1 0 0 0 0 2ZM54.16 57H60a1 1 0 1 0 0-2h-5.8a1 1 0 0 0 0 2Z" fill="#a91a2d" data-original="#000000"/></g></svg>