<svg xmlns="http://www.w3.org/2000/svg" version="1.1" xmlns:xlink="http://www.w3.org/1999/xlink" xmlns:svgjs="http://svgjs.com/svgjs" x="0" y="0" viewBox="0 0 512 512" style="enable-background:new 0 0 512 512" xml:space="preserve"><g><path d="M499.017 212.9h-32.123a13 13 0 0 0-12.984 12.983V247.2H160.863a30.933 30.933 0 0 0-24.068-27.9l-78.7-18.015v-43.993a13 13 0 0 0-12.984-12.983H12.983A13 13 0 0 0 0 157.292v173.663a6 6 0 0 0 6 6h40.09v33.483a21.023 21.023 0 0 0 21 21h8.61v40.424a25.827 25.827 0 1 0 26.214 9.085l153.748-21.775 154.357 21.861a25.788 25.788 0 1 0 26.281-9.171v-40.424h8.611a21.023 21.023 0 0 0 21-21v-33.483H506a6 6 0 0 0 6-6V225.884a13 13 0 0 0-12.983-12.984Zm-45.107 65.639H160.959V259.2H453.91Zm-319.793-47.552a18.78 18.78 0 0 1 14.842 18.623v28.929H58.09v-64.954ZM46.09 324.955H12V157.292a1.01 1.01 0 0 1 .983-.983h32.123a1.01 1.01 0 0 1 .984.983Zm35.61 145.8a13.8 13.8 0 1 1 0-27.6c.416 0 .826.027 1.233.063a5.863 5.863 0 0 0 1.089.148 13.793 13.793 0 0 1-2.322 27.39Zm6-39.911v-35.459l125.175 17.728Zm57.7-39.4h220.524l-110.262 15.609Zm278.9 3.852v35.646l-125.851-17.829Zm19.8 61.661a13.8 13.8 0 1 1-13.8-13.8 13.815 13.815 0 0 1 13.8 13.794Zm9.809-86.513a9.01 9.01 0 0 1-9 9H67.089a9.01 9.01 0 0 1-9-9v-33.489H453.91ZM58.09 324.955v-34.416h395.82v34.416Zm441.91 0h-34.09v-99.071a1.009 1.009 0 0 1 .984-.983h32.123a1.009 1.009 0 0 1 .983.983ZM145.118 112.067a82.818 82.818 0 1 0 82.818-82.818 82.912 82.912 0 0 0-82.818 82.818Zm153.636 0a70.818 70.818 0 1 1-70.818-70.818 70.9 70.9 0 0 1 70.818 70.818ZM210.8 74.241v20.692h-20.691a7.743 7.743 0 0 0-7.734 7.735v18.8a7.743 7.743 0 0 0 7.734 7.734H210.8v20.693a7.743 7.743 0 0 0 7.735 7.735h18.8a7.743 7.743 0 0 0 7.734-7.735V129.2h20.692a7.744 7.744 0 0 0 7.735-7.734v-18.8a7.743 7.743 0 0 0-7.735-7.735H245.07v-20.69a7.743 7.743 0 0 0-7.734-7.735h-18.8a7.743 7.743 0 0 0-7.736 7.735Zm12 24.957V78.506h10.27V99.2a7.744 7.744 0 0 0 7.736 7.735H261.5V117.2h-20.694a7.744 7.744 0 0 0-7.736 7.736v20.692H222.8v-20.691a7.744 7.744 0 0 0-7.736-7.736h-20.689v-10.268h20.691A7.744 7.744 0 0 0 222.8 99.2Z" fill="#a91a2d" data-original="#000000"/></g></svg>