<svg xmlns="http://www.w3.org/2000/svg" version="1.1" xmlns:xlink="http://www.w3.org/1999/xlink" xmlns:svgjs="http://svgjs.com/svgjs" x="0" y="0" viewBox="0 0 607.775 607.775" style="enable-background:new 0 0 512 512" xml:space="preserve"><g><path d="M607.772 60.352a30.722 30.722 0 0 0-9.117-21.981L569.402 9.117A30.724 30.724 0 0 0 547.532 0h-.101a30.447 30.447 0 0 0-21.708 9.117L393.027 141.813H131.686V30.389C131.686 13.605 118.08 0 101.297 0H81.038C36.304.05.052 36.302.002 81.036v448.241c2.535 44.393 39.511 78.955 83.974 78.493h493.408c16.783 0 30.388-13.605 30.388-30.388v-405.18c0-16.783-13.605-30.389-30.388-30.389h-38.492l59.764-59.764a30.54 30.54 0 0 0 9.116-21.697zM362.436 253.238a6.756 6.756 0 0 1-5.794-2.026 6.999 6.999 0 0 1-2.026-5.713l3.839-34.44c.161-.72.364-1.431.608-2.127l39.9 39.9c-.658.142-1.256.466-1.945.547zm53.068-16.542-44.327-44.337L481.589 81.948l44.306 44.296zm80.368-169.082 15.022-15.012 44.286 44.296-15.012 15.022zM20.261 81.036c.034-33.552 27.225-60.744 60.777-60.777h20.259c5.594 0 10.13 4.535 10.13 10.129v405.18c0 5.594-4.535 10.129-10.13 10.129H81.038a80.873 80.873 0 0 0-60.777 27.491zm557.123 81.036c5.594 0 10.13 4.535 10.13 10.13v405.18c0 5.594-4.535 10.13-10.13 10.13H83.976c-33.44.562-61.454-25.181-63.715-58.549v-2.229c.034-33.552 27.225-60.743 60.777-60.777h20.259c16.783 0 30.388-13.605 30.388-30.388V162.072h241.082l-23.004 23.004a39.125 39.125 0 0 0-11.436 23.642l-3.839 34.511c-.316 3.366.004 6.76.942 10.008H162.074c-5.594 0-10.13 4.535-10.13 10.13 0 5.594 4.535 10.129 10.13 10.129h30.389v273.497c0 5.594 4.535 10.13 10.13 10.13s10.13-4.535 10.13-10.13V405.18h111.424v81.036H253.24c-5.594 0-10.129 4.535-10.129 10.129s4.535 10.13 10.129 10.13h202.59c11.189 0 20.259-9.07 20.259-20.259V334.274c0-5.594-4.535-10.13-10.129-10.13s-10.13 4.535-10.13 10.13v50.647H212.722V273.497h148.985c.988.002 1.976-.052 2.958-.162l34.612-3.94a39.662 39.662 0 0 0 23.298-11.092l96.109-96.23h58.7zM455.83 405.18v81.036H344.405V405.18zM584.373 67.685l-14.87 14.88-44.286-44.286 14.88-14.88a10.391 10.391 0 0 1 7.405-3.14 10.603 10.603 0 0 1 7.546 3.181l29.295 29.234a10.63 10.63 0 0 1 3.171 7.607 10.374 10.374 0 0 1-3.141 7.404z" fill="#a91a2d" data-original="#000000"/></g></svg>