<svg xmlns="http://www.w3.org/2000/svg" version="1.1" xmlns:xlink="http://www.w3.org/1999/xlink" xmlns:svgjs="http://svgjs.com/svgjs" x="0" y="0" viewBox="0 0 123.999 123.999" style="enable-background:new 0 0 512 512" xml:space="preserve" class=""><g><path d="M91.889 30.495H69.238V17.446c2.461-.393 4.861.17 7.378.773 2.048.491 4.269 1.023 6.644 1.023 1.742 0 5.666-.054 5.666-2.551V3.444c0-1.33-1.334-2.304-2.604-1.907-2.671.847-5.237.23-8.208-.484C74.759.247 70.956-.668 66.635.704c-1.236.392-1.396 1.546-1.396 2.658v27.133H32.99c-12.677 0-22.991 10.313-22.991 22.991v41.369a2 2 0 0 0 2 2h42.896v25.144a2 2 0 0 0 2 2h12.43a2 2 0 0 0 2-2V96.855h35.647c3.875 0 7.027-3.173 7.027-7.073V52.787c0-12.292-9.918-22.292-22.11-22.292zM77.179 4.943c2.48.597 5.027 1.209 7.747.941v9.231c-2.461.39-4.86-.182-7.377-.786-2.518-.604-5.302-1.256-8.311-.917v-9.23c2.722-.483 5.268.119 7.941.761zm-63.18 48.543c0-10.472 8.519-18.991 18.991-18.991h.857c10.472 0 18.991 8.519 18.991 18.991v39.369H13.999zm53.326 66.513h-8.43V96.855h8.43zm42.674-30.217c0 1.694-1.358 3.073-3.027 3.073H56.838V53.486c0-7.881-3.987-14.847-10.049-18.991H91.89c9.986 0 18.11 8.206 18.11 18.292v36.995z" fill="#fff" data-original="#000000"/></g></svg>