<svg xmlns="http://www.w3.org/2000/svg" fill="#bead8e"  version="1.1" xmlns:xlink="http://www.w3.org/1999/xlink" xmlns:svgjs="http://svgjs.com/svgjs" x="0" y="0" viewBox="0 0 512 512" style="enable-background:new 0 0 512 512" xml:space="preserve"><g><path d="M489.456 0h-99.735c-4.151 0-7.515 3.364-7.515 7.515s3.364 7.515 7.515 7.515h99.735c4.144 0 7.515 3.371 7.515 7.515v151.253c0 4.144-3.371 7.515-7.515 7.515H282.687V177.7c0-14.66-11.926-26.585-26.585-26.585s-26.585 11.926-26.585 26.585v3.613h-76.549a7.515 7.515 0 1 0 0 15.03h76.549v132.432l-17.849-20.004a58.192 58.192 0 0 0-43.376-19.43c-6.167 0-11.73 3.165-14.881 8.467s-3.271 11.702-.323 17.119l29.928 54.979a148.633 148.633 0 0 0 28.126 36.665l31.894 30.347v16.098c-7.801 1.621-13.68 8.546-13.68 16.821v24.983c0 9.474 7.707 17.181 17.181 17.181h118.487c9.474 0 17.182-7.707 17.182-17.181v-24.983c0-8.096-5.635-14.884-13.184-16.693v-16.705c6.849-8.64 28.086-40.348 28.086-101.259v-45.9c0-14.659-11.926-26.584-26.585-26.584a26.427 26.427 0 0 0-13.439 3.653c-3.917-9.807-13.513-16.755-24.702-16.755a26.423 26.423 0 0 0-13.438 3.653c-3.917-9.807-13.513-16.755-24.702-16.755-4.139 0-8.06.95-11.556 2.645v-42.792h206.769c12.431 0 22.544-10.114 22.544-22.544V22.544C512 10.113 501.887 0 489.456 0zM294.243 251.518c6.372 0 11.556 5.184 11.556 11.556v13.103c0 4.151 3.364 7.515 7.515 7.515s7.515-3.364 7.515-7.515c0-6.372 5.184-11.556 11.556-11.556 6.371 0 11.555 5.184 11.555 11.556v13.102c0 4.151 3.364 7.515 7.515 7.515s7.515-3.364 7.515-7.515c0-6.372 5.184-11.555 11.556-11.555s11.556 5.183 11.556 11.555v45.9c0 64.562-25.791 93.094-26.025 93.346a7.51 7.51 0 0 0-2.062 5.17v18.959H335.84c-4.151 0-7.515 3.364-7.515 7.515s3.364 7.515 7.515 7.515h29.185c1.187 0 2.153.966 2.153 2.153v24.983a2.155 2.155 0 0 1-2.153 2.152H246.537a2.154 2.154 0 0 1-2.152-2.152v-24.983c0-1.187.965-2.153 2.152-2.153h59.244c4.151 0 7.515-3.364 7.515-7.515s-3.364-7.515-7.515-7.515h-47.715v-18.959a7.515 7.515 0 0 0-2.335-5.444l-34.229-32.569a133.605 133.605 0 0 1-25.286-32.963l-29.928-54.979c-.707-1.896-.001-3.085 2.003-3.371 12.27 0 23.992 5.25 32.161 14.406l30.685 34.39c4.354 5.122 13.617 1.855 13.407-5.003V177.7c0-6.372 5.184-11.556 11.556-11.556 6.371 0 11.555 5.184 11.555 11.556v85.374c0 4.151 3.364 7.515 7.515 7.515s7.515-3.364 7.515-7.515c.002-6.372 5.186-11.556 11.558-11.556zM122.909 181.312H22.544c-4.144 0-7.515-3.371-7.515-7.515V22.544c0-4.144 3.371-7.515 7.515-7.515h337.118a7.514 7.514 0 1 0 0-15.029H22.544C10.113 0 0 10.113 0 22.544v151.253c0 12.43 10.113 22.544 22.544 22.544h100.365a7.515 7.515 0 1 0 0-15.029z" fill="#bead8e" data-original="#000000"/><path d="M305.453 92.526c4.415-4.303 5.975-10.619 4.069-16.483-1.905-5.864-6.88-10.058-12.982-10.945l-17.497-2.542a1.056 1.056 0 0 1-.794-.576l-7.826-15.856c-2.728-5.529-8.253-8.964-14.42-8.964-6.166 0-11.692 3.434-14.421 8.964l-7.826 15.857c-.154.31-.45.526-.791.575l-17.501 2.542c-6.102.887-11.076 5.081-12.981 10.945s-.346 12.18 4.069 16.483l12.663 12.344c.248.242.361.589.302.931l-2.989 17.428c-1.042 6.076 1.409 12.103 6.397 15.727 4.988 3.625 11.478 4.094 16.936 1.225l15.652-8.229c.306-.162.672-.162.978 0l15.653 8.229a16.1 16.1 0 0 0 7.498 1.864c3.32 0 6.619-1.041 9.438-3.089 4.987-3.624 7.438-9.651 6.395-15.727l-2.988-17.428a1.05 1.05 0 0 1 .302-.931zm-23.154 1.583a16.073 16.073 0 0 0-4.624 14.233l2.989 17.43c.029.176.11.644-.419 1.027-.527.384-.951.162-1.108.08l-15.651-8.228a16.081 16.081 0 0 0-14.967-.001l-15.651 8.229c-.158.082-.579.306-1.109-.08-.529-.384-.449-.852-.418-1.028l2.989-17.429a16.075 16.075 0 0 0-4.625-14.233l-12.662-12.343c-.128-.125-.468-.457-.267-1.078.202-.622.673-.691.849-.716l17.501-2.542a16.08 16.08 0 0 0 12.106-8.797l7.826-15.856c.079-.161.289-.586.943-.586s.863.426.943.586l7.826 15.855a16.08 16.08 0 0 0 12.109 8.799l17.498 2.542c.177.026.648.094.849.716.202.621-.138.953-.266 1.078zM145.641 123.23l-2.989-17.428a1.048 1.048 0 0 1 .303-.931l12.662-12.344c4.415-4.303 5.974-10.619 4.069-16.483s-6.879-10.058-12.982-10.945l-17.498-2.542a1.054 1.054 0 0 1-.793-.576l-7.826-15.856c-2.729-5.529-8.254-8.964-14.42-8.964s-11.692 3.434-14.421 8.964l-7.825 15.856a1.056 1.056 0 0 1-.792.576l-17.5 2.542c-6.102.887-11.076 5.081-12.981 10.945s-.346 12.18 4.069 16.483l12.663 12.344c.248.242.361.589.302.931l-2.989 17.428c-1.042 6.077 1.409 12.104 6.397 15.727 4.989 3.626 11.478 4.093 16.936 1.225l15.652-8.229c.306-.161.672-.161.979 0l15.653 8.229a16.1 16.1 0 0 0 7.498 1.864c3.32 0 6.619-1.041 9.438-3.089 4.986-3.624 7.437-9.651 6.395-15.727zm-13.176-29.122a16.075 16.075 0 0 0-4.626 14.234l2.989 17.429c.03.176.111.644-.418 1.028-.528.386-.95.162-1.108.08l-15.652-8.229a16.078 16.078 0 0 0-14.966 0l-15.651 8.229c-.158.082-.579.305-1.108-.08-.529-.383-.449-.852-.418-1.028l2.989-17.429a16.075 16.075 0 0 0-4.625-14.233L67.209 81.765c-.128-.125-.468-.457-.267-1.078.202-.622.673-.691.849-.716l17.501-2.542a16.083 16.083 0 0 0 12.107-8.797l7.826-15.856c.079-.161.289-.586.943-.586s.864.426.943.586l7.826 15.855a16.08 16.08 0 0 0 12.108 8.799l17.499 2.542c.177.026.647.094.849.716.202.621-.138.953-.266 1.078zM455.289 92.526c4.415-4.303 5.975-10.619 4.069-16.483-1.905-5.864-6.88-10.058-12.982-10.945l-17.497-2.542a1.054 1.054 0 0 1-.794-.576l-7.826-15.856c-2.729-5.529-8.254-8.964-14.42-8.964s-11.692 3.434-14.421 8.964l-7.825 15.855a1.059 1.059 0 0 1-.793.577l-17.5 2.542c-6.103.887-11.076 5.081-12.981 10.946-1.905 5.864-.345 12.18 4.069 16.482l12.663 12.344c.247.242.361.589.301.931l-2.987 17.428c-1.043 6.077 1.408 12.104 6.396 15.728 4.986 3.625 11.476 4.094 16.935 1.225l15.652-8.229a1.05 1.05 0 0 1 .978 0l15.653 8.229a16.1 16.1 0 0 0 7.498 1.864c3.32 0 6.619-1.041 9.438-3.089 4.987-3.624 7.438-9.651 6.395-15.727l-2.988-17.428a1.05 1.05 0 0 1 .302-.931zm-23.154 1.583a16.073 16.073 0 0 0-4.624 14.233l2.989 17.43c.029.176.11.644-.419 1.027-.527.384-.951.162-1.108.08l-15.651-8.228a16.085 16.085 0 0 0-14.967-.001l-15.652 8.229c-.156.082-.578.305-1.107-.08-.528-.383-.448-.851-.418-1.028l2.987-17.426a16.078 16.078 0 0 0-4.623-14.236L366.88 81.764c-.127-.124-.468-.456-.266-1.077.203-.622.673-.691.849-.716l17.501-2.542a16.088 16.088 0 0 0 12.107-8.797l7.826-15.856c.079-.161.29-.586.943-.586s.863.426.942.586l7.826 15.855a16.08 16.08 0 0 0 12.109 8.799l17.498 2.542c.177.026.648.094.849.716.203.621-.138.953-.266 1.078z" data-original="#000000"/></g></svg>