<svg xmlns="http://www.w3.org/2000/svg" version="1.1" xmlns:xlink="http://www.w3.org/1999/xlink" xmlns:svgjs="http://svgjs.com/svgjs" x="0" y="0" viewBox="0 0 64 64" style="enable-background:new 0 0 512 512" xml:space="preserve"><g><path d="M61 56h-1a5.057 5.057 0 0 0-1.542-3.56 4.854 4.854 0 0 0-2.537-1.357 5.469 5.469 0 0 0-9.842 0 4.854 4.854 0 0 0-2.537 1.357A5.057 5.057 0 0 0 42 56H30V33a1 1 0 0 0-1-1H15a1 1 0 0 0-1 1v23h-4V28.368l22-18.074 22 18.074V46a1 1 0 0 0 2 0V30.011l.975.802a1 1 0 0 0 1.401-.13l3.39-4.04a1 1 0 0 0-.131-1.416L56 20.598V4a2.002 2.002 0 0 0-2-2h-8a2.002 2.002 0 0 0-2 2v6.741l-9.592-7.88a3.894 3.894 0 0 0-4.816 0L2.365 25.228a1 1 0 0 0-.131 1.416l3.39 4.04a1 1 0 0 0 1.4.13L8 30.01V56H3a1 1 0 0 0-1 1v4a1 1 0 0 0 1 1h58a1 1 0 0 0 1-1v-4a1 1 0 0 0-1-1ZM46 4h8v14.956l-8-6.572ZM6.52 28.64 4.416 26.13 30.862 4.408a1.838 1.838 0 0 1 2.276 0L59.584 26.13 57.48 28.64 32.635 8.228a1 1 0 0 0-1.27 0Zm38.426 25.225a2.631 2.631 0 0 1 1.806-.838 1 1 0 0 0 .96-.671 3.473 3.473 0 0 1 6.577 0 .984.984 0 0 0 .959.67 2.7 2.7 0 0 1 1.806.839A3.047 3.047 0 0 1 58 56H44a3.047 3.047 0 0 1 .946-2.135ZM16 34h12v22H16Zm44 26H4v-2h56ZM35 32a1 1 0 0 0-1 1v12a1 1 0 0 0 1 1h14a1 1 0 0 0 1-1V33a1 1 0 0 0-1-1Zm13 6h-5v-4h5Zm-7-4v4h-5v-4Zm-5 6h5v4h-5Zm7 4v-4h5v4Z" data-name="01-House" fill="#a91a2d" data-original="#000000"/></g></svg>