<svg xmlns="http://www.w3.org/2000/svg" fill="#a91a2d" version="1.1" xmlns:xlink="http://www.w3.org/1999/xlink" xmlns:svgjs="http://svgjs.com/svgjs" x="0" y="0" viewBox="0 0 512 511" style="enable-background:new 0 0 512 512" xml:space="preserve"><g><path d="M247.36 178.723c3.335 3.168 8.882 2.527 11.417-1.297l49.918-75.336a7.503 7.503 0 0 0-2.11-10.399c-3.448-2.285-8.105-1.34-10.394 2.11l-44.984 67.89-24.996-23.734a7.503 7.503 0 0 0-10.606.277 7.499 7.499 0 0 0 .278 10.602c-.004 0 31.449 29.863 31.476 29.887zm0 0" fill="#a91a2d" data-original="#000000"/><path d="M252.477 293.117a11.112 11.112 0 0 0 4.597 1.004h.063a10.975 10.975 0 0 0 4.652-1.062C375.836 238.82 395.164 121.797 398.367 87.223c.735-7.895-3.71-15.246-11.058-18.293-22.704-9.426-38.137-30.504-40.278-55.008C346.371 6.379 339.926.5 332.332.5h-.09l-153.648.902c-7.746.043-14.04 5.93-14.633 13.692-1.89 24.511-17.098 45.742-39.688 55.406-7.273 3.11-11.609 10.5-10.78 18.39 3.609 34.536 24.308 151.329 138.984 204.227zM130.172 84.29c27.7-11.844 46.36-37.848 48.73-67.89L332.11 15.5c2.723 29.977 21.649 55.742 49.45 67.281 1.242.52 1.996 1.746 1.875 3.059-3.008 32.402-21.004 141.656-126.387 192.855-105.988-49.953-125.25-158.996-128.64-191.363a2.954 2.954 0 0 1 1.765-3.043zm0 0" fill="#a91a2d" data-original="#000000"/><path d="M148.898 125.867c.907 3.336 5.137 6.39 9.207 5.27 3.993-1.102 6.356-5.207 5.27-9.203a247.3 247.3 0 0 1-4.777-21.246 105.478 105.478 0 0 0 42.914-56.239l108.312-.636a105.47 105.47 0 0 0 43.57 55.73 244.88 244.88 0 0 1-4.53 21.316 7.501 7.501 0 1 0 14.523 3.762 260.438 260.438 0 0 0 5.195-25.031 11.468 11.468 0 0 0-5.406-11.633 90.517 90.517 0 0 1-39.805-51.023c-1.473-4.801-6-8.137-11.023-8.137h-.07l-113.4.664c-5.054.031-9.577 3.434-10.995 8.27-6.29 21.425-20.215 39.71-39.203 51.488-3.98 2.465-6.047 7.054-5.27 11.695a261.135 261.135 0 0 0 5.488 24.953zM348.227 148.105c-3.829-1.585-8.211.243-9.793 4.07-17.332 42.009-44.77 73.946-81.575 94.966-37.09-20.614-64.925-52.282-82.746-94.157a7.506 7.506 0 0 0-9.84-3.96 7.498 7.498 0 0 0-3.964 9.835c19.449 45.696 50.09 80.145 91.07 102.383a11.48 11.48 0 0 0 11.125-.062c40.672-22.692 70.883-57.442 89.797-103.285a7.491 7.491 0 0 0-4.074-9.79zM48.121 384.273c-14.629 0-26.535 11.903-26.535 26.536 0 14.632 11.906 26.535 26.535 26.535 14.633 0 26.54-11.903 26.54-26.535 0-14.633-11.903-26.536-26.54-26.536zm0 38.07c-6.36 0-11.535-5.171-11.535-11.534 0-6.36 5.176-11.536 11.535-11.536 6.363 0 11.54 5.176 11.54 11.536 0 6.363-5.177 11.535-11.54 11.535zm0 0" fill="#a91a2d" data-original="#000000"/><path d="M506.621 310.848c-9.613-14.125-28.969-17.868-43.144-8.344l-98.047 65.621-20.93-1.176-.535-5.36a45.518 45.518 0 0 0-39.012-40.663 6.784 6.784 0 0 0-.394-.047L198.91 311.62c-3.574-.558-15.015-3.844-46.453-21.875-16.34-9.371-34.75-14.66-53.453-15.379v-19.62c0-9.849-8.008-17.856-17.856-17.856H17.855C8.012 236.89 0 244.902 0 254.746v193.246c0 9.844 8.012 17.856 17.855 17.856h63.293c9.844 0 17.856-8.012 17.856-17.856v-5.324l92.351 34.973c.204.078 7.704 2.882 21.493 1.582.039-.004 153.449-22.121 153.449-22.121.039-.004.074-.012.113-.02a75.447 75.447 0 0 0 35.758-16.02c.094-.078.184-.156.273-.234l99.106-89.137c11.68-10.37 13.863-27.93 5.074-40.843zm-15.07 29.66-99 89.043a60.437 60.437 0 0 1-28.453 12.71l-153.336 22.106a2.768 2.768 0 0 0-.133.02l-.074.011c-4.586.723-9.364.418-14.203-.906L99.004 426.63v-85.652a7.5 7.5 0 0 0-7.5-7.5 7.497 7.497 0 0 0-7.5 7.5v107.015a2.86 2.86 0 0 1-2.856 2.856H17.855A2.86 2.86 0 0 1 15 447.992V254.746a2.86 2.86 0 0 1 2.855-2.855h63.293a2.86 2.86 0 0 1 2.856 2.855v52.352a7.5 7.5 0 0 0 7.5 7.5 7.5 7.5 0 0 0 7.5-7.5v-17.715c16.09.71 31.918 5.304 45.988 13.379 37.918 21.746 48.508 23.246 51.988 23.738.133.02.262.031.395.047l105.66 9.258a30.56 30.56 0 0 1 26.004 27.27l.399 3.995-141.458 8.735a17.094 17.094 0 0 1-11.95-6.129 7.494 7.494 0 0 0-10.561-.957 7.494 7.494 0 0 0-.957 10.562c5.504 6.602 13.27 10.551 21.851 11.442 4.633.484 151.325-9.133 151.325-9.133l29.406 1.652a7.477 7.477 0 0 0 4.59-1.258l100.148-67.023c7.356-4.941 17.398-3.004 22.387 4.324 4.558 6.703 3.426 15.813-2.668 21.223zm0 0" fill="#a91a2d" data-original="#000000"/></g></svg>