<svg id="Layer_1" data-name="Layer 1" xmlns="http://www.w3.org/2000/svg" viewBox="0 0 331.69 234.53"><defs><style>.cls-1{fill:#a91a2d;}</style></defs><title>TAAM LOGO</title><polygon class="cls-1" points="26.61 15.77 26.61 26.6 51.92 26.6 63.74 26.6 63.74 26.63 63.8 26.6 63.8 15.77 26.61 15.77"/><path class="cls-1" d="M101.13,15.77H80a5,5,0,0,0-3,1L63.8,26.6H93.65Z"/><path class="cls-1" d="M51.92,37.49v103A5,5,0,0,0,54,144.5l9.71,6.79V26.63L54,33.42a5,5,0,0,0-2.11,4.07"/><path class="cls-1" d="M177.12,15.77,141.48,74.39h13.27l7.8-13h21.56a6.31,6.31,0,0,0,4.71-2.1L196,51.28H168.62l13.7-22.76L196,51.28l5.75,10.16,8.13,13h13.92L188.18,15.77Z"/><path class="cls-1" d="M300.89,31.32l-7.64-.05h0l11.83-15.5H289L266.35,59.14,243.64,15.77H227.38v124.7a5,5,0,0,0,2.12,4.07l9.71,6.79-.34-120.26L262,74.39h8.3l22.27-41.92V74.39h11.83V34.89a3.57,3.57,0,0,0-3.55-3.57"/><path class="cls-1" d="M231.61,162.16h44.71a4.94,4.94,0,0,0,3-1l13.28-9.85H239.09Z"/><path class="cls-1" d="M292.61,151.29l9.71-6.79a5,5,0,0,0,2.12-4.06V110.85H292.61Z"/><polygon class="cls-1" points="292.56 151.33 292.61 151.33 292.61 151.29 292.56 151.33"/><rect class="cls-1" x="292.61" y="96.57" width="11.83" height="10.11"/><rect class="cls-1" x="277.47" y="96.57" width="11.83" height="10.11"/><path class="cls-1" d="M183.41,153c-8.29,0-11.82-2.06-16.19-6.12-3.95-3.66-6-8.92-6-15.19,0-12.83,6.73-20.8,22.23-20.8s25.12,8,25.12,20.8c0,13.55-9.16,21.31-25.12,21.31m25.93-42.66c-6.14-5.66-15.1-8.66-25.93-8.66-20.8,0-31.89,11.68-31.89,29.07,0,9.43,2.65,16.18,8.17,20.63H63.8l13.28,9.85a4.94,4.94,0,0,0,3,1H186.3c18.88,0,31.88-11.41,31.88-30.52,0-8.63-3.05-16-8.84-21.35"/><path d="M65.28,190.55a5.06,5.06,0,0,1-3.65,1.52A4.85,4.85,0,0,1,56.42,187a4.94,4.94,0,0,1,5.21-5.21,4.59,4.59,0,0,1,3.55,1.5l-.61.62a4.16,4.16,0,0,0-2.94-1.2,4,4,0,0,0-4.2,4.28,3.91,3.91,0,0,0,4.2,4.19,4.32,4.32,0,0,0,3-1.23Z"/><path d="M71.6,191.16a4.25,4.25,0,0,0,0-8.49,3.89,3.89,0,0,0-4.08,4.26,4,4,0,0,0,4.08,4.23m5.06-4.23a5.08,5.08,0,1,1-5.06-5.21,4.9,4.9,0,0,1,5.06,5.21"/><polygon points="86.11 190.03 86.05 186.7 86.05 181.9 87.05 181.9 87.05 191.91 86.45 191.91 79.97 183.86 79.99 186.82 79.99 191.91 78.99 191.91 78.99 181.9 79.62 181.9 86.11 190.03"/><path d="M96.28,184a3.38,3.38,0,0,0-2.88-1.28c-1.23,0-2.82.36-2.82,1.83,0,1.18,1.29,1.49,2.85,1.77,2,.34,4,.78,4,2.91s-2.19,2.88-4,2.88a4.39,4.39,0,0,1-4.18-2.22l.88-.47a3.59,3.59,0,0,0,3.3,1.73c1.24,0,3-.33,3-1.93,0-1.36-1.51-1.7-3.07-2-1.89-.33-3.75-.75-3.75-2.7s2.12-2.77,3.81-2.77a4.19,4.19,0,0,1,3.74,1.74Z"/><polygon points="102.05 182.84 98.51 182.84 98.51 181.9 106.58 181.9 106.58 182.84 103.05 182.84 103.05 191.91 102.05 191.91 102.05 182.84"/><path d="M109.4,182.84v4.44h3.44a2.22,2.22,0,1,0,.06-4.44Zm7.22,9.07h-1.31L112,188.22H109.4v3.69h-1v-10h4.5a3.07,3.07,0,0,1,3.32,3.18,2.91,2.91,0,0,1-3,3.08Z"/><path d="M126.58,181.9V188a3.71,3.71,0,0,1-4,4,3.75,3.75,0,0,1-4-4V181.9h1V188a2.89,2.89,0,0,0,3,3.07,2.85,2.85,0,0,0,3-3.07V181.9Z"/><path d="M137.67,190.55a5.09,5.09,0,0,1-3.65,1.52,4.84,4.84,0,0,1-5.21-5.11,4.93,4.93,0,0,1,5.21-5.21,4.6,4.6,0,0,1,3.55,1.5l-.62.62a4.14,4.14,0,0,0-2.93-1.2,4,4,0,0,0-4.21,4.28,3.91,3.91,0,0,0,4.21,4.19,4.32,4.32,0,0,0,3-1.23Z"/><polygon points="142.16 182.84 138.63 182.84 138.63 181.9 146.7 181.9 146.7 182.84 143.16 182.84 143.16 191.91 142.16 191.91 142.16 182.84"/><rect x="148.51" y="181.89" width="1" height="10.02"/><path d="M156.93,191.16a4.25,4.25,0,0,0,0-8.49,3.9,3.9,0,0,0-4.08,4.26,4,4,0,0,0,4.08,4.23m5.07-4.23a5.08,5.08,0,1,1-5.07-5.21,4.91,4.91,0,0,1,5.07,5.21"/><polygon points="171.44 190.03 171.38 186.7 171.38 181.9 172.39 181.9 172.39 191.91 171.78 191.91 165.3 183.86 165.33 186.82 165.33 191.91 164.33 191.91 164.33 181.9 164.96 181.9 171.44 190.03"/><path d="M179.47,189.17c0,1.23,1,2,2.76,2,1,0,2.62-.62,2.62-1.95v-2h-2.62c-2,0-2.76,1.05-2.76,2m6.25.05c0,.95.27,1.82,1.19,1.82v.89a1.53,1.53,0,0,1-1.76-1.23,3.84,3.84,0,0,1-2.89,1.34c-2.38,0-3.78-1-3.78-2.89a2.55,2.55,0,0,1,1.9-2.35,2.38,2.38,0,0,1-1.73-2.24c0-1.69,1.42-2.75,3.58-2.75,1.63,0,3.38.43,3.39,2.52h-.89c0-1.42-1.27-1.71-2.53-1.71-1.8,0-2.59.92-2.58,1.92,0,1.41,1.59,1.86,2.67,1.86h4.35v.79h-.92Z"/><path d="M193.78,191h2.53a3.89,3.89,0,0,0,4-4.19,3.84,3.84,0,0,0-4-3.95h-2.53Zm2.53-9.08a4.74,4.74,0,0,1,5,4.91,4.8,4.8,0,0,1-5,5.11h-3.53v-10Z"/><polygon points="210.87 191.91 203.68 191.91 203.68 181.9 210.74 181.9 210.74 182.84 204.68 182.84 204.68 186.43 210.47 186.43 210.47 187.36 204.68 187.36 204.68 190.97 210.87 190.97 210.87 191.91"/><polygon points="217.61 191.94 216.49 191.94 212.22 181.9 213.33 181.9 217.05 190.84 220.71 181.9 221.83 181.9 217.61 191.94"/><polygon points="230.97 191.91 223.79 191.91 223.79 181.9 230.84 181.9 230.84 182.84 224.79 182.84 224.79 186.43 230.57 186.43 230.57 187.36 224.79 187.36 224.79 190.97 230.97 190.97 230.97 191.91"/><polygon points="234.36 181.9 234.36 190.97 239.93 190.97 239.93 191.91 233.36 191.91 233.36 181.9 234.36 181.9"/><path d="M245.76,191.16a4.25,4.25,0,0,0,0-8.49,3.89,3.89,0,0,0-4.08,4.26,4,4,0,0,0,4.08,4.23m5.06-4.23a5.08,5.08,0,1,1-5.06-5.21,4.9,4.9,0,0,1,5.06,5.21"/><path d="M254.15,187.63h3.48c3.14,0,3.14-4.79,0-4.79h-3.48Zm0,1v3.33h-1v-10h4.48c4.48,0,4.48,6.68,0,6.69Z"/><polygon points="271.85 183.37 268.11 188.87 267.82 188.87 264.07 183.3 264.07 191.91 263.07 191.91 263.07 181.9 264.3 181.9 267.96 187.42 271.59 181.9 272.85 181.9 272.85 191.91 271.85 191.91 271.85 183.37"/><polygon points="283.01 191.91 275.82 191.91 275.82 181.9 282.88 181.9 282.88 182.84 276.82 182.84 276.82 186.43 282.61 186.43 282.61 187.36 276.82 187.36 276.82 190.97 283.01 190.97 283.01 191.91"/><polygon points="292.51 190.03 292.45 186.7 292.45 181.9 293.45 181.9 293.45 191.91 292.85 191.91 286.37 183.86 286.4 186.82 286.4 191.91 285.39 191.91 285.39 181.9 286.02 181.9 292.51 190.03"/><polygon points="298.8 182.84 295.27 182.84 295.27 181.9 303.34 181.9 303.34 182.84 299.81 182.84 299.81 191.91 298.8 191.91 298.8 182.84"/><path d="M89.27,217.43a.16.16,0,0,1-.18-.18V216.2a.16.16,0,0,1,.18-.18h.42c1,0,1.46-.52,1.46-1.54v-7.87a.16.16,0,0,1,.18-.18h1.16a.16.16,0,0,1,.18.18v4.58a1,1,0,0,0,.45.92,2,2,0,0,0,1.18.31h.2a.83.83,0,0,1,.54.15.65.65,0,0,1,.18.52c0,.31,0,.51-.17.6a.89.89,0,0,1-.55.14h-.38a1.81,1.81,0,0,1-1.45-.58v1.19a3,3,0,0,1-.74,2.23,2.92,2.92,0,0,1-2.17.76Z"/><path d="M94.52,213.83a.59.59,0,0,1-.49-.16.81.81,0,0,1-.13-.53,1,1,0,0,1,.12-.59.67.67,0,0,1,.5-.13h2a.89.89,0,0,1,.54.14.65.65,0,0,1,.18.53.77.77,0,0,1-.17.59.84.84,0,0,1-.55.15Z"/><path d="M99.76,217.19a.16.16,0,0,1-.18-.18v-1.32a.16.16,0,0,1,.18-.18H101a.16.16,0,0,1,.18.18V217a.16.16,0,0,1-.18.18Zm-2.2,0a.16.16,0,0,1-.18-.18v-1.32a.16.16,0,0,1,.18-.18h1.23a.16.16,0,0,1,.18.18V217a.16.16,0,0,1-.18.18Zm-.93-3.36a.9.9,0,0,1-.54-.13.58.58,0,0,1-.18-.51.85.85,0,0,1,.17-.61.79.79,0,0,1,.55-.16h1.23a.9.9,0,0,0,.66-.21,1.05,1.05,0,0,0,.21-.75v-4.85a.16.16,0,0,1,.18-.18h1.16a.16.16,0,0,1,.18.18v4.58a1.06,1.06,0,0,0,.44.92,2.1,2.1,0,0,0,1.19.31h.22a.83.83,0,0,1,.54.15.65.65,0,0,1,.18.52.78.78,0,0,1-.17.6.91.91,0,0,1-.55.14h-.4a2,2,0,0,1-1-.24,1.52,1.52,0,0,1-.67-.7,1.9,1.9,0,0,1-1.89.94Z"/><path d="M102.11,213.83a.56.56,0,0,1-.48-.16.81.81,0,0,1-.13-.53,1,1,0,0,1,.12-.59.65.65,0,0,1,.49-.13h2a.91.91,0,0,1,.55.14.65.65,0,0,1,.18.53.77.77,0,0,1-.17.59.85.85,0,0,1-.56.15Z"/><path d="M104.12,213.83a.6.6,0,0,1-.49-.16.88.88,0,0,1-.12-.53,1.08,1.08,0,0,1,.11-.59.68.68,0,0,1,.5-.13h2a.89.89,0,0,1,.54.14.65.65,0,0,1,.18.53c0,.3,0,.5-.17.59a.82.82,0,0,1-.55.15Z"/><path d="M106.13,213.83a.6.6,0,0,1-.49-.16.87.87,0,0,1-.13-.53,1,1,0,0,1,.12-.59.68.68,0,0,1,.5-.13h2a.89.89,0,0,1,.54.14.65.65,0,0,1,.18.53c0,.3,0,.5-.17.59a.82.82,0,0,1-.55.15Z"/><path d="M108.14,213.83a.59.59,0,0,1-.49-.16.81.81,0,0,1-.13-.53,1,1,0,0,1,.12-.59.67.67,0,0,1,.5-.13h2a.89.89,0,0,1,.54.14.65.65,0,0,1,.18.53.77.77,0,0,1-.17.59.84.84,0,0,1-.55.15Z"/><path d="M110.15,213.83c-.25,0-.41-.05-.49-.16a.81.81,0,0,1-.13-.53,1,1,0,0,1,.12-.59.67.67,0,0,1,.5-.13h2a.89.89,0,0,1,.54.14.65.65,0,0,1,.18.53.77.77,0,0,1-.17.59.84.84,0,0,1-.55.15Z"/><path d="M112.15,213.83a.56.56,0,0,1-.48-.16.81.81,0,0,1-.13-.53,1,1,0,0,1,.12-.59c.07-.09.24-.13.49-.13h2a1,1,0,0,1,.55.14.65.65,0,0,1,.18.53.73.73,0,0,1-.18.59.8.8,0,0,1-.55.15Z"/><path d="M114.16,213.83a.6.6,0,0,1-.49-.16.88.88,0,0,1-.12-.53,1,1,0,0,1,.11-.59.68.68,0,0,1,.5-.13h2a.89.89,0,0,1,.54.14.65.65,0,0,1,.18.53c0,.3-.05.5-.17.59a.82.82,0,0,1-.55.15Z"/><path d="M116.17,213.83a.59.59,0,0,1-.49-.16.87.87,0,0,1-.13-.53,1,1,0,0,1,.12-.59.68.68,0,0,1,.5-.13h2a.89.89,0,0,1,.54.14.65.65,0,0,1,.18.53.77.77,0,0,1-.17.59.82.82,0,0,1-.55.15Z"/><path d="M118.18,213.83a.59.59,0,0,1-.49-.16.81.81,0,0,1-.13-.53,1,1,0,0,1,.12-.59.67.67,0,0,1,.5-.13h2a.89.89,0,0,1,.54.14.65.65,0,0,1,.18.53.77.77,0,0,1-.17.59.84.84,0,0,1-.55.15Z"/><path d="M120.18,213.83a.56.56,0,0,1-.48-.16.81.81,0,0,1-.13-.53,1,1,0,0,1,.12-.59.65.65,0,0,1,.49-.13h2a.91.91,0,0,1,.55.14.65.65,0,0,1,.18.53.77.77,0,0,1-.17.59.85.85,0,0,1-.56.15Z"/><path d="M122.19,213.83a.6.6,0,0,1-.49-.16.88.88,0,0,1-.12-.53,1.08,1.08,0,0,1,.11-.59.68.68,0,0,1,.5-.13h2a.89.89,0,0,1,.54.14.65.65,0,0,1,.18.53c0,.3-.05.5-.17.59a.82.82,0,0,1-.55.15Z"/><path d="M124.2,213.83a.6.6,0,0,1-.49-.16.87.87,0,0,1-.13-.53,1,1,0,0,1,.12-.59.68.68,0,0,1,.5-.13h2a.89.89,0,0,1,.54.14.65.65,0,0,1,.18.53c0,.3,0,.5-.17.59a.82.82,0,0,1-.55.15Z"/><path d="M126.21,213.83a.59.59,0,0,1-.49-.16.81.81,0,0,1-.13-.53,1,1,0,0,1,.12-.59.67.67,0,0,1,.5-.13h2a.89.89,0,0,1,.54.14.65.65,0,0,1,.18.53.77.77,0,0,1-.17.59.84.84,0,0,1-.55.15Z"/><path d="M128.21,213.83a.56.56,0,0,1-.48-.16.81.81,0,0,1-.13-.53,1,1,0,0,1,.12-.59.65.65,0,0,1,.49-.13h2a.91.91,0,0,1,.55.14.65.65,0,0,1,.18.53.77.77,0,0,1-.17.59.85.85,0,0,1-.56.15Z"/><path d="M130.22,213.83a.6.6,0,0,1-.49-.16.88.88,0,0,1-.12-.53,1,1,0,0,1,.12-.59c.07-.09.24-.13.49-.13h2a.89.89,0,0,1,.54.14.62.62,0,0,1,.19.53.73.73,0,0,1-.18.59.8.8,0,0,1-.55.15Z"/><path d="M132.23,213.83a.6.6,0,0,1-.49-.16.88.88,0,0,1-.12-.53,1,1,0,0,1,.11-.59.68.68,0,0,1,.5-.13h2a.89.89,0,0,1,.54.14.65.65,0,0,1,.18.53c0,.3-.05.5-.17.59a.82.82,0,0,1-.55.15Z"/><path d="M134.24,213.83a.59.59,0,0,1-.49-.16.87.87,0,0,1-.13-.53,1,1,0,0,1,.12-.59.68.68,0,0,1,.5-.13h2a.89.89,0,0,1,.54.14.65.65,0,0,1,.18.53.77.77,0,0,1-.17.59.82.82,0,0,1-.55.15Z"/><path d="M136.25,213.83c-.25,0-.41-.05-.49-.16a.81.81,0,0,1-.13-.53,1,1,0,0,1,.12-.59.67.67,0,0,1,.5-.13h2a.89.89,0,0,1,.54.14.65.65,0,0,1,.18.53.77.77,0,0,1-.17.59.84.84,0,0,1-.55.15Z"/><path d="M138.25,213.83a.6.6,0,0,1-.49-.16.88.88,0,0,1-.12-.53,1,1,0,0,1,.12-.59c.07-.09.24-.13.49-.13h2a1,1,0,0,1,.55.14.65.65,0,0,1,.18.53.73.73,0,0,1-.18.59.8.8,0,0,1-.55.15Z"/><path d="M145.71,207.52a1.68,1.68,0,0,0-1.48.66,3.25,3.25,0,0,0-.46,1.87,3.11,3.11,0,0,0,.46,1.9,2.14,2.14,0,0,0,3,0,3.11,3.11,0,0,0,.46-1.9,3.25,3.25,0,0,0-.46-1.87,1.67,1.67,0,0,0-1.47-.66m0,6.43a4.39,4.39,0,0,1-1.51-.24,2.65,2.65,0,0,1-1.1-.77,1.6,1.6,0,0,1-1,.73,4.06,4.06,0,0,1-1.1.16h-.78a.64.64,0,0,1-.72-.73c0-.3.06-.49.17-.57a1.11,1.11,0,0,1,.55-.11h.91a1.19,1.19,0,0,0,.4-.08,1,1,0,0,0,.36-.28,1.38,1.38,0,0,0,.26-.5,2.53,2.53,0,0,0,.1-.79c0-.12,0-.24,0-.35v-.37a4.17,4.17,0,0,1,.92-3,3.89,3.89,0,0,1,5.07,0,4.17,4.17,0,0,1,.92,3c0,.13,0,.26,0,.4s0,.26,0,.38a1.82,1.82,0,0,0,.37,1.25,1.08,1.08,0,0,0,.76.34h.52a.83.83,0,0,1,.54.15.65.65,0,0,1,.18.52c0,.31-.05.51-.17.6a.89.89,0,0,1-.55.14h-.4l-.54,0a2.9,2.9,0,0,1-.57-.12,1.74,1.74,0,0,1-.53-.26,1.49,1.49,0,0,1-.44-.46,2.63,2.63,0,0,1-1.1.76,4.3,4.3,0,0,1-1.48.23"/><path d="M150.77,213.83a.6.6,0,0,1-.49-.16.88.88,0,0,1-.12-.53,1,1,0,0,1,.11-.59.68.68,0,0,1,.5-.13h2a.89.89,0,0,1,.54.14.65.65,0,0,1,.18.53c0,.3,0,.5-.17.59a.82.82,0,0,1-.55.15Z"/><path d="M152.78,213.83a.59.59,0,0,1-.49-.16.81.81,0,0,1-.13-.53,1,1,0,0,1,.12-.59.67.67,0,0,1,.5-.13h2a.89.89,0,0,1,.54.14.65.65,0,0,1,.18.53.77.77,0,0,1-.17.59.84.84,0,0,1-.55.15Z"/><path d="M154.79,213.83c-.25,0-.41-.05-.49-.16a.81.81,0,0,1-.13-.53,1,1,0,0,1,.12-.59.67.67,0,0,1,.5-.13h2a.89.89,0,0,1,.54.14.65.65,0,0,1,.18.53.77.77,0,0,1-.17.59.84.84,0,0,1-.55.15Z"/><path d="M156.79,213.83a.6.6,0,0,1-.49-.16.88.88,0,0,1-.12-.53,1,1,0,0,1,.12-.59c.07-.09.24-.13.49-.13h2a1,1,0,0,1,.55.14.65.65,0,0,1,.18.53.73.73,0,0,1-.18.59.8.8,0,0,1-.55.15Z"/><path d="M163.7,207.52a5.15,5.15,0,0,0-1.43.17,3,3,0,0,0-.81.3,5.31,5.31,0,0,1,1.62,1.46,6,6,0,0,1,1,2.24,4.48,4.48,0,0,0,.62-.46,5.67,5.67,0,0,0,.59-.61,3.87,3.87,0,0,0,.43-.74,2.3,2.3,0,0,0,.17-.85,1.5,1.5,0,0,0-.17-.74,1.44,1.44,0,0,0-.46-.46,2.22,2.22,0,0,0-.7-.24,4.76,4.76,0,0,0-.86-.07m0-1.42a4.49,4.49,0,0,1,2.86.76,2.53,2.53,0,0,1,.92,2.07,3.24,3.24,0,0,1-.19,1.11,4,4,0,0,1-.49,1,4.33,4.33,0,0,1-.66.8,4,4,0,0,1-.74.57,1.17,1.17,0,0,0,.27,0h2.93a1,1,0,0,1,.55.12.6.6,0,0,1,.18.51.84.84,0,0,1-.17.61.8.8,0,0,1-.56.17h-2.55a6.28,6.28,0,0,1-1.24-.12,3.53,3.53,0,0,1-1.11-.44,4.39,4.39,0,0,1-1.26.44,6.94,6.94,0,0,1-1.2.12h-2.46a.64.64,0,0,1-.72-.73c0-.3.06-.49.17-.57a1.11,1.11,0,0,1,.55-.11h2.34l.62,0a5.44,5.44,0,0,0,.91-.17,4.68,4.68,0,0,0-.39-1.23,4.06,4.06,0,0,0-.57-.9,4.15,4.15,0,0,0-.71-.68l-.79-.57a.93.93,0,0,1-.2-.19.41.41,0,0,1-.05-.18v-1.08a.38.38,0,0,1,.18-.36c.15-.09.34-.18.57-.29a7.5,7.5,0,0,1,.82-.31,7.69,7.69,0,0,1,1-.24,7.31,7.31,0,0,1,1.17-.09"/><path d="M172,204.64a.16.16,0,0,1-.18-.18v-1.32A.16.16,0,0,1,172,203h1.23a.16.16,0,0,1,.18.18v1.32a.16.16,0,0,1-.18.18Zm-2.21,0a.16.16,0,0,1-.18-.18v-1.32a.16.16,0,0,1,.18-.18h1.23c.13,0,.19.06.19.18v1.32c0,.12-.06.18-.19.18Zm-1.1,9.19a.9.9,0,0,1-.54-.13.58.58,0,0,1-.18-.51.85.85,0,0,1,.17-.61.77.77,0,0,1,.55-.16H170a.9.9,0,0,0,.66-.21,1.05,1.05,0,0,0,.21-.75v-4.85a.16.16,0,0,1,.18-.18h1.16a.16.16,0,0,1,.18.18v4.58a1.06,1.06,0,0,0,.44.92,2.1,2.1,0,0,0,1.19.31h.21a.86.86,0,0,1,.55.15.65.65,0,0,1,.18.52.78.78,0,0,1-.17.6.92.92,0,0,1-.56.14h-.39a2.08,2.08,0,0,1-1-.24,1.57,1.57,0,0,1-.67-.7,1.87,1.87,0,0,1-1.88.94Z"/><path d="M174.19,213.83a.9.9,0,0,1-.54-.13.58.58,0,0,1-.18-.51.85.85,0,0,1,.17-.61.79.79,0,0,1,.55-.16h1.14a.9.9,0,0,0,.66-.21,1.05,1.05,0,0,0,.21-.75v-9.75a.16.16,0,0,1,.18-.18h1.16a.16.16,0,0,1,.18.18v9.84a2.55,2.55,0,0,1-.49,1.73,2.11,2.11,0,0,1-1.63.55Z"/><rect x="180.25" y="201.53" width="1.52" height="12.3" rx="0.18" ry="0.18"/><path d="M191.86,207.52a1.69,1.69,0,0,0-1.44.72,3.19,3.19,0,0,0-.53,1.92,2.43,2.43,0,0,0,.52,1.77,2.16,2.16,0,0,0,1.53.49h1.82v-2.37a3.28,3.28,0,0,0-.44-1.86,1.6,1.6,0,0,0-1.46-.67m-2,9.91a.16.16,0,0,1-.18-.18V216.2a.16.16,0,0,1,.18-.18h2.17a2.8,2.8,0,0,0,.67-.08,1.35,1.35,0,0,0,.53-.28,1.18,1.18,0,0,0,.36-.52,2.49,2.49,0,0,0,.12-.84v-.47h-1.93a5.34,5.34,0,0,1-1.44-.19,2.58,2.58,0,0,1-1.78-1.75,5.43,5.43,0,0,1-.24-1.73,5.16,5.16,0,0,1,.28-1.8,3.37,3.37,0,0,1,.75-1.27,3,3,0,0,1,1.11-.74,3.76,3.76,0,0,1,1.35-.24,3.34,3.34,0,0,1,2.52.93,4.22,4.22,0,0,1,.9,3v4.21a4.14,4.14,0,0,1-.22,1.45,2.5,2.5,0,0,1-.64,1,2.57,2.57,0,0,1-1,.56,4.37,4.37,0,0,1-1.29.18Z"/><path d="M202.43,212.6a2.74,2.74,0,0,1-.37-.79,3.43,3.43,0,0,1-.14-1,3.29,3.29,0,0,1,.15-.95,2.58,2.58,0,0,1,.48-.93,2.72,2.72,0,0,1,.91-.71,3,3,0,0,1,1.39-.28,3.09,3.09,0,0,1,1.3.27,2,2,0,0,1,.94.78c.07.08.09.14.07.18a.22.22,0,0,1-.07.09l-.59.51c-.12.09-.23.1-.31,0a2.7,2.7,0,0,0-.6-.43,1.67,1.67,0,0,0-.79-.18,1.42,1.42,0,0,0-1.17.48,1.74,1.74,0,0,0-.39,1.13,1.92,1.92,0,0,0,.31,1.1,2.79,2.79,0,0,0,.61.71h3c.12,0,.18.06.18.2v.83c0,.13-.06.2-.18.2h-5.81c-.12,0-.18-.07-.18-.2v-.83c0-.14.06-.2.18-.2Z"/><path d="M209.05,201.71a.16.16,0,0,1,.18-.18h1.16a.16.16,0,0,1,.18.18v9.75a1.05,1.05,0,0,0,.21.75.87.87,0,0,0,.66.21h.79a.64.64,0,0,1,.73.72q0,.45-.18.57a1,1,0,0,1-.55.12h-1.07a2.1,2.1,0,0,1-1.62-.55,2.55,2.55,0,0,1-.49-1.73Z"/><path d="M212.25,213.83a.6.6,0,0,1-.49-.16.87.87,0,0,1-.13-.53,1,1,0,0,1,.12-.59.68.68,0,0,1,.5-.13h2a.89.89,0,0,1,.54.14.65.65,0,0,1,.18.53c0,.3-.05.5-.17.59a.82.82,0,0,1-.55.15Z"/><path d="M214.26,213.83a.59.59,0,0,1-.49-.16.81.81,0,0,1-.13-.53,1,1,0,0,1,.12-.59.67.67,0,0,1,.5-.13h2a.89.89,0,0,1,.54.14.65.65,0,0,1,.18.53.77.77,0,0,1-.17.59.84.84,0,0,1-.55.15Z"/><path d="M216.27,213.83c-.25,0-.41-.05-.49-.16a.81.81,0,0,1-.13-.53,1,1,0,0,1,.12-.59.67.67,0,0,1,.5-.13h2a.89.89,0,0,1,.54.14.65.65,0,0,1,.18.53.77.77,0,0,1-.17.59.84.84,0,0,1-.55.15Z"/><path d="M218.27,213.83a.6.6,0,0,1-.49-.16.88.88,0,0,1-.12-.53,1.08,1.08,0,0,1,.11-.59.68.68,0,0,1,.5-.13h2a.89.89,0,0,1,.54.14.62.62,0,0,1,.19.53.73.73,0,0,1-.18.59.8.8,0,0,1-.55.15Z"/><path d="M220.28,213.83a.6.6,0,0,1-.49-.16.88.88,0,0,1-.12-.53,1,1,0,0,1,.11-.59.68.68,0,0,1,.5-.13h2a.89.89,0,0,1,.54.14.65.65,0,0,1,.18.53c0,.3-.05.5-.17.59a.82.82,0,0,1-.55.15Z"/><path d="M222.29,213.83a.59.59,0,0,1-.49-.16.87.87,0,0,1-.13-.53,1,1,0,0,1,.12-.59.68.68,0,0,1,.5-.13h2a.89.89,0,0,1,.54.14.65.65,0,0,1,.18.53.77.77,0,0,1-.17.59.82.82,0,0,1-.55.15Z"/><path d="M224.3,213.83a.59.59,0,0,1-.49-.16.81.81,0,0,1-.13-.53,1,1,0,0,1,.12-.59.67.67,0,0,1,.5-.13h2a.89.89,0,0,1,.54.14.65.65,0,0,1,.18.53.77.77,0,0,1-.17.59.84.84,0,0,1-.55.15Z"/><path d="M226.3,213.83a.56.56,0,0,1-.48-.16.81.81,0,0,1-.13-.53,1,1,0,0,1,.12-.59c.07-.09.24-.13.49-.13h2a1,1,0,0,1,.55.14.65.65,0,0,1,.18.53.73.73,0,0,1-.18.59.8.8,0,0,1-.55.15Z"/><path d="M228.31,213.83a.6.6,0,0,1-.49-.16.88.88,0,0,1-.12-.53,1.08,1.08,0,0,1,.11-.59.68.68,0,0,1,.5-.13h2a.89.89,0,0,1,.54.14.65.65,0,0,1,.18.53c0,.3-.05.5-.17.59a.82.82,0,0,1-.55.15Z"/><path d="M230.32,213.83a.6.6,0,0,1-.49-.16.87.87,0,0,1-.13-.53,1,1,0,0,1,.12-.59.68.68,0,0,1,.5-.13h2a.89.89,0,0,1,.54.14.65.65,0,0,1,.18.53c0,.3-.05.5-.17.59a.82.82,0,0,1-.55.15Z"/><path d="M232.33,213.83a.59.59,0,0,1-.49-.16.81.81,0,0,1-.13-.53,1,1,0,0,1,.12-.59.67.67,0,0,1,.5-.13h2a.89.89,0,0,1,.54.14.65.65,0,0,1,.18.53.77.77,0,0,1-.17.59.84.84,0,0,1-.55.15Z"/><path d="M234.33,213.83a.56.56,0,0,1-.48-.16.81.81,0,0,1-.13-.53,1,1,0,0,1,.12-.59.65.65,0,0,1,.49-.13h2a.91.91,0,0,1,.55.14.65.65,0,0,1,.18.53.77.77,0,0,1-.17.59.85.85,0,0,1-.56.15Z"/><path d="M236.34,213.83a.6.6,0,0,1-.49-.16.88.88,0,0,1-.12-.53,1.08,1.08,0,0,1,.11-.59.68.68,0,0,1,.5-.13h2a.89.89,0,0,1,.54.14.62.62,0,0,1,.19.53.73.73,0,0,1-.18.59.8.8,0,0,1-.55.15Z"/><path d="M246.65,204.64a.16.16,0,0,1-.18-.18v-1.32a.16.16,0,0,1,.18-.18h1.23a.16.16,0,0,1,.18.18v1.32a.16.16,0,0,1-.18.18Zm-1.08-2.12a.16.16,0,0,1-.18-.18V201a.16.16,0,0,1,.18-.18h1.23a.16.16,0,0,1,.18.18v1.32a.16.16,0,0,1-.18.18Zm-1.12,2.12c-.13,0-.19-.06-.19-.18v-1.32c0-.12.06-.18.19-.18h1.23a.16.16,0,0,1,.18.18v1.32a.16.16,0,0,1-.18.18Zm-.47,9.19a2.08,2.08,0,0,1-1-.24,1.57,1.57,0,0,1-.67-.7,1.88,1.88,0,0,1-1.88.94h-1.95a.9.9,0,0,1-.54-.13.58.58,0,0,1-.18-.51.81.81,0,0,1,.17-.61.77.77,0,0,1,.55-.16h1.68a.9.9,0,0,0,.66-.21,1.05,1.05,0,0,0,.21-.75v-3.29a.16.16,0,0,1,.18-.18h1.16a.16.16,0,0,1,.18.18v3a1.05,1.05,0,0,0,.43.92,2,2,0,0,0,1.16.31h.45a.9.9,0,0,0,.66-.21,1.05,1.05,0,0,0,.21-.75v-3.29a.16.16,0,0,1,.18-.18h1.16a.16.16,0,0,1,.18.18v3.09a1,1,0,0,0,.45.87,2.19,2.19,0,0,0,1.18.29H249a.89.89,0,0,0,.66-.21,1.05,1.05,0,0,0,.21-.75v-4.85a.16.16,0,0,1,.18-.18h1.16a.16.16,0,0,1,.18.18v4.58a1.06,1.06,0,0,0,.44.92,2.1,2.1,0,0,0,1.19.31h.2a.83.83,0,0,1,.54.15.65.65,0,0,1,.18.52.78.78,0,0,1-.17.6.89.89,0,0,1-.55.14h-.38a2,2,0,0,1-1-.24,1.52,1.52,0,0,1-.67-.7,1.89,1.89,0,0,1-1.88.94h-.87a2.08,2.08,0,0,1-1-.24,1.57,1.57,0,0,1-.67-.7,1.87,1.87,0,0,1-1.88.94Z"/><path d="M255.37,204.64a.16.16,0,0,1-.18-.18v-1.32a.16.16,0,0,1,.18-.18h1.23a.16.16,0,0,1,.18.18v1.32a.16.16,0,0,1-.18.18Zm-2.15,9.19a.9.9,0,0,1-.54-.13.58.58,0,0,1-.18-.51.81.81,0,0,1,.17-.61.77.77,0,0,1,.55-.16h1.14a.9.9,0,0,0,.66-.21,1.05,1.05,0,0,0,.21-.75v-4.85a.16.16,0,0,1,.18-.18h1.15c.13,0,.19.06.19.18v4.94a2.61,2.61,0,0,1-.49,1.73,2.12,2.12,0,0,1-1.63.55Z"/><path d="M261.7,218a1.91,1.91,0,0,1-.23-.5,2.06,2.06,0,0,1-.09-.62,2.2,2.2,0,0,1,.09-.61,1.69,1.69,0,0,1,.3-.58,1.79,1.79,0,0,1,.57-.43,1.94,1.94,0,0,1,.88-.18,2.07,2.07,0,0,1,.84.17,1.38,1.38,0,0,1,.59.47q.06.12,0,.18l-.38.31c-.09.07-.15.08-.2,0a1.4,1.4,0,0,0-.38-.3,1.1,1.1,0,0,0-.49-.11.9.9,0,0,0-.75.3,1.23,1.23,0,0,0,0,1.42,1.82,1.82,0,0,0,.4.45h1.87c.07,0,.1,0,.1.12v.51c0,.08,0,.13-.1.13H261c-.07,0-.1-.05-.1-.13v-.51c0-.08,0-.12.1-.12Zm1.94-5.59h2.11a.9.9,0,0,0,.66-.21,1.05,1.05,0,0,0,.21-.75v-9.75a.16.16,0,0,1,.18-.18H268a.16.16,0,0,1,.18.18v9.71a1,1,0,0,0,.52.75,2.07,2.07,0,0,0,1.09.25h.2a.83.83,0,0,1,.54.15.65.65,0,0,1,.18.52c0,.31-.05.51-.17.6a.89.89,0,0,1-.55.14h-.38a2.17,2.17,0,0,1-1-.23,1.62,1.62,0,0,1-.68-.69,1.84,1.84,0,0,1-1.87.92h-7.47a.16.16,0,0,1-.18-.18V212.6a.16.16,0,0,1,.18-.18h3.57v-8.16a.16.16,0,0,1,.18-.18h1.16a.16.16,0,0,1,.18.18Z"/><path d="M270,213.83a.9.9,0,0,1-.54-.13.58.58,0,0,1-.18-.51.81.81,0,0,1,.17-.61.77.77,0,0,1,.55-.16h1.14a.9.9,0,0,0,.66-.21,1.05,1.05,0,0,0,.21-.75v-9.75a.16.16,0,0,1,.18-.18h1.16a.16.16,0,0,1,.18.18v9.84a2.61,2.61,0,0,1-.49,1.73,2.12,2.12,0,0,1-1.63.55Z"/><path class="cls-1" d="M107.59,15.77,72,74.39H85.22l7.8-13h21.56a6.31,6.31,0,0,0,4.71-2.1l7.19-8.06H99.09l13.7-22.76,13.69,22.76,5.75,10.16,8.13,13h13.92L118.65,15.77Z"/></svg>